<svg width="399" height="72" viewBox="0 0 399 72" fill="none" xmlns="http://www.w3.org/2000/svg">
<path id="fan" class="fill" d="M194.599 10.2719C193.976 8.44094 194.475 5.98582 195.805 4.27971C197.094 2.61522 199.048 1.82459 201.293 2.03265C203.372 2.1991 204.162 3.48908 204.453 4.2381C204.952 5.44486 204.744 6.9429 203.954 7.81675C203.538 8.27449 203.039 8.56578 202.54 8.85706C202.249 9.02351 201.958 9.18996 201.751 9.35641C201.376 9.64769 201.127 10.0222 200.961 10.4799C200.586 10.3551 200.171 10.2719 199.713 10.2303C199.963 9.48124 200.379 8.81545 201.002 8.35771C201.293 8.14965 201.626 7.94159 201.917 7.77514C202.333 7.52547 202.748 7.2758 203.039 6.98451C203.455 6.52677 203.663 5.56969 203.289 4.69584C203.039 4.11326 202.499 3.40586 201.168 3.28102C198.84 3.07296 197.51 4.15488 196.803 5.07035C195.556 6.61 195.348 8.649 195.764 9.85576C195.93 10.3551 196.179 10.8961 196.512 11.437C196.179 11.7699 195.93 12.1028 195.722 12.5189C195.223 11.7699 194.849 11.0209 194.599 10.2719ZM209.692 10.7296C207.987 9.39802 205.534 8.89867 203.705 9.52286C202.956 9.77253 202.208 10.147 201.46 10.6464C201.875 10.8544 202.249 11.1041 202.54 11.437C203.081 11.1041 203.621 10.8544 204.12 10.688C205.326 10.2719 207.405 10.4799 208.943 11.6867C209.858 12.3941 210.939 13.7673 210.731 16.056C210.606 17.3876 209.899 17.9701 209.317 18.1782C208.444 18.5111 207.488 18.303 207.031 17.9285C206.74 17.6372 206.49 17.2627 206.241 16.805C206.074 16.4721 205.867 16.1808 205.659 15.8895C205.16 15.2653 204.536 14.8492 203.788 14.5996C203.788 15.0157 203.705 15.4318 203.538 15.8479C203.996 16.0144 204.37 16.264 204.661 16.6386C204.827 16.8466 204.993 17.1379 205.16 17.4292C205.451 17.9285 205.742 18.4279 206.199 18.844C207.072 19.593 208.569 19.8011 209.775 19.3433C210.523 19.0521 211.77 18.2614 211.978 16.1808C212.145 13.9754 211.355 12.0196 209.692 10.7296ZM203.289 16.4305C203.081 16.8466 202.832 17.2211 202.499 17.5124C202.832 18.0534 203.081 18.5943 203.247 19.0937C203.663 20.3004 203.455 22.381 202.249 23.9207C201.543 24.8362 200.171 25.9181 197.842 25.71C196.512 25.5852 195.93 24.8778 195.722 24.2952C195.389 23.4213 195.597 22.4643 195.971 22.0065C196.221 21.7152 196.637 21.4656 197.094 21.2159C197.427 21.0494 197.718 20.8414 198.009 20.6333C198.632 20.134 199.048 19.5098 199.298 18.7608C198.882 18.7608 198.466 18.6776 198.05 18.5111C197.884 18.9688 197.635 19.3433 197.26 19.6346C197.011 19.8011 196.761 19.9675 196.47 20.134C195.971 20.4253 195.473 20.7166 195.057 21.1743C194.308 22.0481 194.101 23.5462 194.558 24.7529C194.849 25.502 195.639 26.7503 197.718 26.9584C197.926 26.9584 198.175 27 198.383 27C200.337 27 202.042 26.2094 203.206 24.7113C204.536 23.0052 205.035 20.5501 204.411 18.7192C204.162 17.9285 203.788 17.1795 203.289 16.4305ZM197.551 18.2614C197.136 18.0534 196.761 17.8037 196.47 17.4708C195.93 17.8037 195.389 18.0534 194.89 18.2198C193.685 18.6359 191.606 18.4279 190.068 17.2211C189.153 16.5137 188.072 15.1405 188.28 12.8102C188.405 11.4786 189.111 10.8961 189.693 10.688C190.567 10.3551 191.523 10.5632 191.98 10.9377C192.271 11.1873 192.521 11.6035 192.77 12.0612C192.936 12.3941 193.144 12.6854 193.352 12.9767C193.851 13.6009 194.475 14.017 195.223 14.2667C195.223 13.8505 195.306 13.4344 195.473 13.0183C195.015 12.8518 194.641 12.6022 194.35 12.2277C194.184 11.978 194.017 11.7283 193.851 11.437C193.56 10.9377 193.269 10.4383 192.812 10.0222C191.939 9.27318 190.442 9.06512 189.236 9.52286C188.488 9.81414 187.241 10.6048 187.033 12.6854C186.825 14.9325 187.615 16.8882 189.278 18.1782C190.982 19.5098 193.435 20.0091 195.265 19.385C196.055 19.1353 196.803 18.7608 197.551 18.2614ZM199.505 11.0625C201.376 11.0625 202.956 12.6022 202.956 14.5163C202.956 16.4305 201.418 17.9701 199.505 17.9701C197.593 17.9701 196.055 16.4305 196.055 14.5163C196.055 12.6022 197.635 11.0625 199.505 11.0625ZM199.505 12.3109C198.3 12.3109 197.302 13.3096 197.302 14.5163C197.302 15.7231 198.3 16.7218 199.505 16.7218C200.711 16.7218 201.709 15.7231 201.709 14.5163C201.709 13.268 200.711 12.3109 199.505 12.3109Z" fill="black"/>
<path class="stroke" d="M119 14H160L239 60H280M119 60H160L239 14H280" stroke="black" stroke-width="3"/>
<text class="fill" fill="black" xml:space="preserve" style="white-space: pre" font-family="system-ui" font-size="20" font-weight="bold" letter-spacing="0em"><tspan id="sensor.dantherm_outdoor_temperature" x="57" y="22.2727">20.5&#xb0;</tspan></text>
<text class="fill" fill="black" xml:space="preserve" style="white-space: pre" font-family="system-ui" font-size="20" font-weight="bold" letter-spacing="0em"><tspan id="sensor.dantherm_exhaust_temperature" x="57" y="67.2727">20.5&#xb0;</tspan></text>
<text class="fill" fill="black" xml:space="preserve" style="white-space: pre" font-family="system-ui" font-size="20" font-weight="bold" letter-spacing="0em"><tspan id="sensor.dantherm_extract_temperature" x="292" y="19.2727">20.5&#xb0;</tspan></text>
<text class="fill" fill="black" xml:space="preserve" style="white-space: pre" font-family="system-ui" font-size="20" font-weight="bold" letter-spacing="0em"><tspan id="sensor.dantherm_supply_temperature" x="292" y="67.2727">20.5&#xb0;</tspan></text>
<path class="fill" d="M284 60L269.75 66.4952V53.5048L284 60Z" fill="black"/>
<path class="fill" d="M115 60L129.25 53.5048V66.4952L115 60Z" fill="black"/>
<path class="fill" d="M130 14L115.75 20.4952V7.50481L130 14Z" fill="black"/>
<path class="fill" d="M268 14L282.25 7.50481V20.4952L268 14Z" fill="black"/>
<g id="house" class="fill" fill="black">
<path d="M398.119 39.018L392.949 34.0225L384.881 26.2368L378.621 20.1857C378.496 20.0665 378.33 20 378.157 20C377.985 20 377.818 20.0665 377.693 20.1857L358.196 39.0113C358.07 39.1372 358 39.3077 358 39.4853C358 39.6629 358.07 39.8333 358.196 39.9593C358.316 40.0893 358.482 40.1666 358.659 40.1744C358.833 40.1737 358.999 40.1063 359.123 39.9862L378.157 21.6111L391.799 34.7957L397.178 39.9862C397.309 40.0942 397.476 40.1487 397.645 40.1388C397.814 40.1289 397.974 40.0553 398.091 39.9328C398.209 39.8103 398.275 39.6479 398.278 39.4782C398.281 39.3086 398.219 39.1442 398.106 39.018H398.119Z" />
<path  d="M393.621 40.1744C393.443 40.1744 393.272 40.2453 393.146 40.3713C393.02 40.4974 392.949 40.6684 392.949 40.8468V57.6553H363.366V40.8468C363.366 40.6684 363.295 40.4974 363.169 40.3713C363.043 40.2453 362.872 40.1744 362.693 40.1744C362.515 40.1744 362.344 40.2453 362.218 40.3713C362.092 40.4974 362.021 40.6684 362.021 40.8468V58.3277C362.021 58.506 362.092 58.677 362.218 58.8031C362.344 58.9292 362.515 59 362.693 59H393.621C393.8 59 393.971 58.9292 394.097 58.8031C394.223 58.677 394.294 58.506 394.294 58.3277V40.8468C394.294 40.6684 394.223 40.4974 394.097 40.3713C393.971 40.2453 393.8 40.1744 393.621 40.1744Z" />
<path d="M382.864 56.3106C383.042 56.3106 383.213 56.2398 383.339 56.1137C383.465 55.9876 383.536 55.8166 383.536 55.6383V46.2255C383.536 46.0472 383.465 45.8762 383.339 45.7501C383.213 45.624 383.042 45.5532 382.864 45.5532H373.451C373.273 45.5532 373.102 45.624 372.976 45.7501C372.849 45.8762 372.779 46.0472 372.779 46.2255V55.6383C372.779 55.8166 372.849 55.9876 372.976 56.1137C373.102 56.2398 373.273 56.3106 373.451 56.3106C373.629 56.3106 373.8 56.2398 373.926 56.1137C374.052 55.9876 374.123 55.8166 374.123 55.6383V46.8978H382.191V55.6383C382.191 55.8166 382.262 55.9876 382.388 56.1137C382.514 56.2398 382.685 56.3106 382.864 56.3106Z" />
</g>
<path class="fill" fill-rule="evenodd" clip-rule="evenodd" d="M1.39308 56.4292C3.22649 55.4028 6.01454 54.5913 9.33205 54.071V50.1236C6.08234 49.8987 2.9686 48.9599 0.341797 47.331C0.261974 47.2813 0.19419 47.2176 0.140443 47.1445C0.117179 47.1128 0.0963205 47.0793 0.0786715 47.0442C0.065037 47.0176 0.0534051 46.9903 0.0433781 46.9625C0.00567506 46.8587 -0.00836647 46.7457 0.00487028 46.6313C0.0365562 46.3523 0.226681 46.1168 0.491406 46.0279C2.99265 45.1899 4.25773 43.8082 5.60185 41.8429C4.35962 41.4617 3.20966 40.942 2.17121 40.2919C1.94138 40.1482 1.81183 39.8869 1.83469 39.6162C1.85835 39.3454 2.03083 39.1099 2.28112 39.0075C4.28664 38.1902 5.72936 36.8614 7.12079 34.5084C6.607 34.336 6.09117 34.1308 5.57576 33.8938C5.30941 33.7713 5.0431 33.6404 4.77716 33.5011C4.51886 33.3657 4.26055 33.2224 4.00303 33.0712C3.93005 33.0282 3.86669 32.9734 3.8141 32.9102C3.79204 32.8838 3.77201 32.8557 3.75434 32.8264C3.73709 32.7986 3.72188 32.7695 3.70865 32.7394C3.66212 32.6343 3.64043 32.5177 3.64806 32.3984C3.66531 32.1247 3.83579 31.885 4.08725 31.7784C7.1268 30.4992 9.18044 27.9739 10.3645 24.0576C10.4547 23.7599 10.7227 23.5542 11.0307 23.545C11.3356 23.5367 11.6191 23.7258 11.7258 24.0172C12.4843 26.0848 14.3294 29.0225 16.182 30.1115C16.1861 29.9541 16.1941 29.7961 16.2061 29.6375C16.5611 24.8749 20.3483 21 24.6473 21C28.4136 21 31.4347 23.976 31.8711 28.01C35.0923 28.8284 37.2566 32.1019 36.9755 35.8745C36.7886 38.3746 35.558 40.68 33.7322 42.1594C33.9808 43.2986 33.9817 44.3023 33.7358 45.2188C33.2778 46.9279 32.0371 48.2341 30.3308 48.8025C29.7392 48.9998 29.1244 49.0959 28.5203 49.0959C27.6531 49.0959 26.8084 48.8983 26.0932 48.5181L26.088 53.9256C30.0834 54.4665 33.3845 55.4179 35.3723 56.6629C35.4734 56.7263 35.5536 56.8109 35.6106 56.9073C35.7433 57.132 35.7501 57.4218 35.6033 57.6589C35.4689 57.8791 35.2339 58 34.9936 58C34.8641 58 34.7329 57.9649 34.6146 57.8904C31.6801 56.0532 25.2329 54.8669 18.1867 54.8669C11.3737 54.8669 5.20673 55.9499 2.0922 57.693C1.74524 57.8874 1.30764 57.7612 1.11471 57.4131C0.921786 57.0637 1.04693 56.6236 1.39308 56.4292ZM17.0825 47.8073C16.9052 47.7298 16.7315 47.6442 16.5611 47.551C15.1308 46.7677 14.0189 45.4524 13.3451 43.7453C12.5657 41.7697 12.4446 39.4076 13.0158 37.2665C13.5813 35.1419 14.7694 33.4101 16.3886 32.3324C16.3469 32.1408 16.3112 31.9477 16.2819 31.753C14.1469 30.9794 12.2585 28.4169 11.1262 26.2079C9.9598 29.0453 8.22223 31.142 5.93873 32.4676C6.755 32.8593 7.56923 33.1631 8.37222 33.3739C8.58599 33.4297 8.76248 33.5816 8.84994 33.7863C8.85836 33.8053 8.86557 33.8244 8.872 33.8438L8.88361 33.8815C8.88925 33.9029 8.89406 33.9245 8.89808 33.9461C8.92653 34.106 8.90086 34.2729 8.82228 34.4186C7.44088 36.9833 5.98609 38.6366 4.11616 39.7154C4.98492 40.1329 5.92351 40.4645 6.92265 40.7042C7.15048 40.7589 7.33738 40.9222 7.42363 41.1414C7.50984 41.3604 7.48417 41.6084 7.35583 41.8058C5.93554 43.9768 4.68489 45.6755 2.37776 46.8131C6.66874 48.9589 12.0716 49.3246 17.0825 47.8073ZM19.6744 48.3706C19.7462 48.3726 19.8184 48.3736 19.891 48.3736C20.4646 48.3736 21.0602 48.3124 21.6767 48.192C21.6623 49.2366 21.6386 50.2685 21.6202 51.0705L21.6149 51.3165C21.5953 52.1823 21.5784 52.9365 21.5744 53.5087C20.471 53.4504 19.3383 53.4203 18.1855 53.4203C17.3805 53.4203 16.5835 53.4354 15.7982 53.4649C15.1015 53.4909 14.414 53.5285 13.7386 53.5767V49.995C15.5507 49.7651 17.3557 49.3161 19.0945 48.6432C19.242 48.5863 19.3603 48.4848 19.4402 48.3607C19.518 48.3651 19.5958 48.3685 19.6744 48.3706ZM12.301 50.1314V53.6976C11.7816 53.7479 11.2706 53.8048 10.7696 53.8679V50.1764L10.8715 50.1766C11.3468 50.1766 11.8237 50.1615 12.301 50.1314ZM26.0949 46.837L26.1017 39.881C28.9791 38.991 31.2381 38.0358 32.1635 35.3734C32.2942 34.9962 32.0969 34.5839 31.7223 34.4517C31.3464 34.3193 30.9377 34.5187 30.8062 34.8959C30.1219 36.863 28.3687 37.6521 25.9476 38.4148C25.0107 35.9312 25.78 30.6524 27.1221 28.1793C27.242 27.9581 27.2351 27.701 27.1261 27.4936C27.0623 27.3724 26.964 27.2681 26.8357 27.1977C26.4875 27.0066 26.0499 27.1357 25.8602 27.4859C25.1908 28.7188 24.6553 30.5041 24.3577 32.3685C23.6165 31.6849 23.2025 31.0316 23.0617 29.9196C23.0116 29.5238 22.651 29.2437 22.2579 29.2934C21.8648 29.344 21.5853 29.7067 21.6358 30.1025C21.8616 31.8839 22.6726 32.8718 23.91 33.8886C23.9863 33.9512 24.0709 33.9962 24.1595 34.0228C24.0071 35.9431 24.1379 37.8001 24.6637 39.0818L24.6509 53.7521C24.4652 53.7323 24.2779 53.7131 24.0894 53.695C23.9213 53.6786 23.752 53.6631 23.5819 53.6482C23.393 53.6316 23.2029 53.6159 23.0116 53.6011C23.0144 53.0693 23.0296 52.3555 23.0481 51.5288L23.0517 51.3591L23.0577 51.1036C23.2261 43.7711 23.0938 42.8772 22.5014 42.5022C21.9262 42.1386 21.4128 41.9349 20.9592 41.7551C19.9704 41.3624 19.2545 41.0782 18.2966 39.1842C18.1158 38.8288 17.6834 38.6873 17.3292 38.8681C17.1816 38.9436 17.0713 39.0637 17.0059 39.2039C16.9145 39.3993 16.9104 39.6334 17.0151 39.8405C18.2204 42.2231 19.2946 42.649 20.4313 43.1005C20.7939 43.2441 21.1665 43.3929 21.5628 43.6223C21.6627 44.0932 21.6919 45.3156 21.6892 46.7122C17.0404 47.7869 15.2439 44.6377 14.6823 43.2153C13.3864 39.9325 14.2355 35.1678 17.5646 33.3078C17.616 33.2789 17.6625 33.2446 17.7042 33.2057C17.7335 33.1784 17.76 33.1491 17.7841 33.1179C17.8077 33.0868 17.829 33.0539 17.8474 33.0196C17.9345 32.8571 17.9597 32.6624 17.9064 32.4751C17.7836 32.0468 17.6998 31.6058 17.6549 31.155L17.6489 31.0928C17.6424 31.0215 17.6368 30.9503 17.632 30.8787C17.6083 30.5073 17.6108 30.1299 17.6392 29.7481C17.9401 25.7234 21.0843 22.4487 24.6473 22.4487C27.8059 22.4487 30.3124 25.1127 30.4788 28.6445C30.4865 28.8041 30.5454 28.9511 30.6405 29.068C30.6906 29.1295 30.7508 29.1826 30.8182 29.2248C30.8976 29.2744 30.9875 29.3089 31.0845 29.3245C33.8673 29.7676 35.783 32.537 35.542 35.7671C35.3326 38.5839 33.5593 41.097 31.1306 42.0207C30.76 42.1612 30.5723 42.5788 30.7127 42.9527C30.7464 43.0429 30.7961 43.1225 30.8575 43.1891C30.904 43.2393 30.957 43.2823 31.0147 43.3172C31.1968 43.4268 31.4251 43.4548 31.6388 43.3733C31.7868 43.317 31.9329 43.2559 32.0768 43.1903C32.1948 43.1364 32.3111 43.0795 32.4262 43.0193C32.52 43.6968 32.4936 44.2985 32.3476 44.8428C31.8968 46.5281 30.6068 47.1863 29.8788 47.4291C28.6158 47.8497 27.2288 47.6678 26.3447 46.9651C26.2998 46.9294 26.2521 46.9001 26.2023 46.8769C26.1674 46.8605 26.1313 46.8472 26.0949 46.837Z" fill="black"/>
</svg>
